<?xml version="1.0" encoding="utf-8"?>
<!-- Generator: Adobe Illustrator 16.0.0, SVG Export Plug-In . SVG Version: 6.00 Build 0)  -->
<!DOCTYPE svg PUBLIC "-//W3C//DTD SVG 1.1//EN" "http://www.w3.org/Graphics/SVG/1.1/DTD/svg11.dtd">
<svg version="1.1" id="Layer_1" xmlns="http://www.w3.org/2000/svg" xmlns:xlink="http://www.w3.org/1999/xlink" x="0px" y="0px"
	 width="747.869px" height="789.875px" viewBox="0 0 747.869 789.875" enable-background="new 0 0 747.869 789.875"
	 xml:space="preserve">
<polygon fill="#231F20" points="232.09,382.662 105.371,310.908 82.927,325.019 232.771,409.869 391.106,318.557 391.106,135.806 
	366.79,151.096 366.79,304.981 "/>
<polygon fill="#231F20" points="233.139,63.461 359.858,135.215 382.302,121.104 232.459,36.255 74.122,127.566 74.122,310.316 
	98.439,295.027 98.439,141.142 "/>
<path d="M261.746,149.999c-1.709,0-3.419,0-5.128,0c-0.147,0.093-0.474,0.649-0.6,0.818c-0.437,0.582-0.971,1.097-1.418,1.69
	c-0.346,0.46-0.854,0.849-1.2,1.31c-1.194,1.589-2.569,2.995-3.765,4.582c-0.994,1.322-2.215,2.482-3.218,3.819
	c-0.2,0.2-0.4,0.4-0.6,0.6c-1.004,1.336-2.224,2.497-3.218,3.818c-3.092,4.112-6.779,7.728-9.874,11.838
	c-0.346,0.46-0.854,0.849-1.2,1.309c-1.194,1.588-2.568,2.996-3.764,4.583c-0.511,0.679-1.228,1.238-1.691,1.964
	c-0.369-0.135-0.596-0.631-0.817-0.927c-0.453-0.601-1.012-1.131-1.474-1.746c-0.431-0.575-1.041-1.062-1.473-1.637
	c-1.38-1.835-2.986-3.455-4.364-5.291c-0.2-0.2-0.4-0.401-0.6-0.601c-0.818-1.089-1.811-2.035-2.619-3.109
	c-1.004-1.335-2.225-2.497-3.218-3.818c-3.091-4.112-6.78-7.728-9.874-11.837c-0.347-0.46-0.854-0.849-1.2-1.309
	c-1.008-1.341-2.154-2.532-3.164-3.874c-0.551-0.731-1.431-1.348-1.854-2.182c-1.709,0-3.419,0-5.128,0c0,6.655,0,13.311,0,19.966
	c0.273,0.272,0.545,0.545,0.818,0.818c0.531,0.704,1.225,1.273,1.745,1.964c1.456,1.928,3.29,3.528,4.747,5.456
	c0.37,0.49,0.939,0.874,1.309,1.364c0.929,1.231,2.07,2.261,3,3.491c0.291,0.291,0.582,0.582,0.873,0.873
	c0.683,0.903,1.499,1.661,2.182,2.564c0.291,0.291,0.582,0.582,0.873,0.873c0.78,1.032,1.795,1.874,2.564,2.891
	c0.662,0.877,1.529,1.591,2.182,2.455c1.967,2.605,4.468,4.76,6.438,7.365c0.291,0.291,0.582,0.582,0.873,0.873
	c1.208,1.601,2.718,2.929,3.928,4.528c0.45,0.595,1.115,1.055,1.528,1.691c1.782,0,3.565,0,5.346,0
	c0.209-0.094,0.66-0.772,0.818-0.982c0.506-0.669,1.176-1.227,1.691-1.91c0.37-0.49,0.939-0.875,1.309-1.363
	c1.456-1.928,3.29-3.528,4.746-5.456c0.291-0.291,0.582-0.583,0.873-0.874c0.683-0.903,1.499-1.66,2.182-2.563
	c0.146-0.128,0.29-0.255,0.436-0.382c2.362-3.127,5.383-5.711,7.747-8.837c0.652-0.864,1.519-1.577,2.182-2.455
	c0.769-1.018,1.784-1.86,2.564-2.891c0.146-0.128,0.292-0.255,0.437-0.382c1.208-1.6,2.719-2.928,3.927-4.528
	c0.355-0.469,0.901-0.84,1.255-1.309c0.531-0.703,1.225-1.273,1.746-1.964c0.326-0.432,0.699-1.006,1.145-1.31
	C261.746,163.31,261.746,156.653,261.746,149.999z"/>
<path d="M183.518,151.253c-20.091,0-40.188,0-60.279,0c0,5.055,0,10.111,0,15.166c20.091,0,40.188,0,60.279,0
	C183.518,161.365,183.518,156.308,183.518,151.253z"/>
<path d="M162.133,219.498c0-15.982,0-31.969,0-47.951c-5.818,0-11.638,0-17.457,0c0,15.981,0,31.969,0,47.951
	C150.495,219.498,156.315,219.498,162.133,219.498z"/>
<path d="M190.282,218.57c4.036,0,8.074,0,12.11,0c1.2,0,2.401,0,3.601,0c0.541,0,1.303,0.09,1.746-0.054c0-6.982,0-13.966,0-20.948
	c-0.181-0.408-0.77-0.736-1.037-1.091c-0.783-1.036-1.727-1.909-2.509-2.946c-0.273-0.272-0.545-0.545-0.818-0.818
	c-0.651-0.862-1.421-1.593-2.073-2.455c-0.146-0.127-0.292-0.255-0.437-0.382c-2.153-2.851-4.882-5.223-7.038-8.074
	c-0.145-0.127-0.291-0.254-0.436-0.381c-0.652-0.863-1.42-1.592-2.073-2.455c-0.292-0.386-0.726-0.658-0.982-1.091
	c-0.019,0-0.037,0-0.054,0C190.282,191.438,190.282,205.006,190.282,218.57z"/>
<path d="M260.436,179.293c-0.915,1.211-2.031,2.226-2.946,3.437c-0.272,0.273-0.545,0.545-0.818,0.818
	c-2.037,2.698-4.617,4.94-6.655,7.638c-0.487,0.644-1.207,1.157-1.692,1.8c-0.652,0.863-1.421,1.591-2.073,2.455
	c-0.145,0.127-0.29,0.254-0.436,0.382c-0.393,0.521-1,1.39-1.528,1.745c0,5.073,0,10.147,0,15.22c0,1.527,0,3.055,0,4.583
	c0,0.648-0.123,1.584,0.055,2.127c5.8,0,11.602,0,17.402,0c0-13.873,0-27.75,0-41.623c-0.018,0-0.036,0-0.054,0
	C261.484,178.441,260.783,178.833,260.436,179.293z"/>
<path d="M287.984,271.049c0.259,0.591,0.671,1.245,0.818,1.909c0.32-0.163,0.432-0.768,0.601-1.09
	c0.497-0.956,0.963-1.915,1.473-2.892c1.279-2.452,2.545-4.97,3.819-7.419c0.438-0.841,0.829-1.691,1.254-2.509
	c0.202-0.387,0.324-0.833,0.6-1.146c0-0.018,0-0.037,0-0.054c0.388,0.197,1.055,2.019,1.31,2.509
	c1.216,2.333,2.318,4.738,3.546,7.093c4.563,9.091,9.128,18.185,13.692,27.276c1.745,0,3.491,0,5.237,0
	c0.077-0.492,0.371-0.906,0.545-1.31c0.462-1.07,0.865-2.138,1.309-3.164c1.457-3.358,2.754-6.733,4.146-10.092
	c-0.297-0.309-0.395-0.859-0.6-1.255c-0.552-1.06-1.016-2.188-1.582-3.273c-1.055-2.024-2.066-4.096-3-6.219
	c-0.731-1.66-1.651-3.263-2.4-4.964c-0.471-1.072-1.165-2.147-1.636-3.219c-2.036-4.619-4.458-8.964-6.492-13.583
	c-0.455-1.034-1.125-2.074-1.582-3.109c-1.295-2.938-2.797-5.68-4.091-8.619c-0.456-1.035-1.126-2.076-1.582-3.11
	c-0.767-1.74-1.706-3.376-2.455-5.074c-0.571-1.292-1.148-2.545-1.801-3.764c-1.727,0-3.455,0-5.182,0
	c-0.208,0.114-0.662,1.445-0.819,1.746c-0.867,1.666-1.681,3.375-2.455,5.128c-0.391,0.884-0.974,1.787-1.364,2.673
	c-1.912,4.336-4.139,8.43-6.055,12.764c-0.62,1.4-1.38,2.761-2.019,4.202c-0.27,0.608-0.768,1.217-0.927,1.909
	c-0.104,0.292,0.396,1.11,0.545,1.418c0.593,1.228,1.051,2.545,1.582,3.765c1.425,3.27,2.611,6.549,4.038,9.819
	C286.977,268.585,287.446,269.819,287.984,271.049z"/>
<path d="M225.85,251.792c-1.132,2.842-3.071,4.456-6.219,5.291c-0.597,0.16-1.142,0.021-1.8,0.165
	c-0.521,0.113-1.296,0.054-1.91,0.054c-1.182,0-2.364,0-3.546,0c0,4.872,0,9.747,0,14.62c1.418,0,2.836,0,4.255,0
	c0.68,0,1.542,0.075,2.127-0.054c0.327,0,0.655,0,0.982,0c0.343-0.078,0.865-0.088,1.2-0.165c0.563-0.054,1.127-0.109,1.691-0.163
	c2.139-0.524,4.237-0.809,6.11-1.583c2.303-0.95,4.424-2.037,6.328-3.382c0.784-0.554,1.438-1.348,2.182-1.909
	c0.627-0.475,1.386-1.229,1.855-1.854c0.587-0.784,1.221-1.57,1.745-2.401c0.302-0.479,0.465-0.981,0.764-1.473
	c2.209-3.625,3.414-11.078,1.8-16.366c-0.826-2.706-1.824-5.033-3.273-7.092c-2.319-3.293-5.766-5.929-9.656-7.637
	c-1.398-0.614-2.905-1.033-4.419-1.527c-1.649-0.538-3.485-0.514-5.291-0.928c-0.909-0.054-1.818-0.109-2.728-0.163
	c-6.582,0-13.166,0-19.748,0c-1.963,0-3.928,0-5.892,0c-0.818,0-2.024-0.176-2.728,0.054c0,15.855,0,31.715,0,47.569
	c0,4.764,0,9.529,0,14.293c0,1.436,0,2.874,0,4.309c0,0.618-0.114,1.505,0.054,2.019c4.037,0,8.075,0,12.111,0c1.199,0,2.4,0,3.6,0
	c0.541,0,1.304,0.09,1.746-0.054c0-17.837,0-35.679,0-53.515c2.673,0,5.347,0,8.019,0c1.442,0,3.098-0.154,4.31,0.163
	c2.061,0.538,3.913,1.401,5.019,2.892c0.658,0.885,1.173,1.925,1.527,3.109c0.337,1.126,0.396,2.941,0.109,4.146
	C226.037,250.801,226.055,251.276,225.85,251.792z"/>
<path d="M257.545,258.284c5.224,12.05,10.046,24.354,15.22,36.441c1.727,0,3.455,0,5.182,0c0.111-0.06,0.456-0.917,0.545-1.092
	c0.483-0.925,0.924-1.888,1.418-2.836c1.359-2.609,2.607-5.275,3.982-7.91c0.44-0.843,0.855-1.695,1.309-2.564
	c0.177-0.338,0.449-0.687,0.545-1.092c0.069-0.09-0.189-0.68-0.272-0.872c-0.311-0.722-0.601-1.479-0.928-2.236
	c-1.381-3.198-2.618-6.483-4.037-9.711c-1.688-3.837-3.15-7.795-4.855-11.673c-4.278-9.731-8.163-19.718-12.328-29.514
	c-6.492,0-12.984,0-19.476,0c0.14,0.82,0.672,1.629,0.982,2.347c0.705,1.628,1.331,3.269,2.019,4.855
	c2.209,5.097,4.188,10.273,6.382,15.328C254.757,251.261,256.024,254.779,257.545,258.284z"/>
<path d="M328.244,272.086c0.247,0.471,0.638,1.033,0.764,1.582c0.274-0.144,0.311-0.632,0.437-0.928
	c0.309-0.724,0.598-1.475,0.927-2.236c1.197-2.762,2.277-5.599,3.492-8.4c2.812-6.484,5.423-13.158,8.237-19.639
	c0.809-1.865,1.426-3.7,2.236-5.564c1.159-2.67,2.203-5.419,3.383-8.128c0.313-0.72,0.596-1.478,0.927-2.237
	c0.172-0.394,0.488-0.824,0.545-1.309c-6.49,0-12.983,0-19.474,0c-3.709,9-7.419,18.002-11.128,27.003
	c0.415,0.434,0.684,1.447,0.982,2.019c0.825,1.582,1.61,3.191,2.346,4.854c0.555,1.256,1.355,2.508,1.909,3.765
	c0.935,2.118,1.909,4.149,2.946,6.219C327.258,270.059,327.724,271.094,328.244,272.086z"/>
<path d="M222.85,281.468c1.987,2.767,4.063,5.421,6.055,8.184c0.917,1.271,2.104,2.45,2.892,3.819c6.436,0,12.875,0,19.311,0
	c-0.281-0.554-0.746-0.983-1.09-1.472c-1.017-1.445-2.105-2.829-3.11-4.255c-2.371-3.366-4.825-6.62-7.201-9.983
	c-1.044-1.478-2.324-2.866-3.273-4.418c-0.054,0-0.109,0-0.164,0c-0.364,0.261-1.051,0.198-1.527,0.328
	c-1.154,0.312-2.396,0.424-3.601,0.763c-1.807,0.508-3.814,0.744-5.619,1.255c-0.437,0.073-0.874,0.146-1.31,0.219
	c-0.811,0.229-1.698,0.3-2.564,0.544c-0.659,0.187-1.466,0.422-2.182,0.492c0.191,0.572,0.76,1.013,1.091,1.474
	C221.307,279.454,222.112,280.442,222.85,281.468z"/>
</svg>
